<svg xmlns="http://www.w3.org/2000/svg" viewBox="0 0 400 400" width="240" height="240">
  <path fill="#323" d="M 0 400 L 0 0 L 400 0 L 400 400 L 0 400 Z"/>
  <path fill="#edc" d="M 283 348 L 276 345 L 275 340 L 284 320 L 284 305 L 282 296 L 278 285 L 249 245 L 245 240 L 236 230 L 233 224 L 226 224 L 220 231 L 217 239 L 213 253 L 211 259 L 210 296 L 220 312 L 222 316 L 222 321 L 218 326 L 194 328 L 187 329 L 175 333 L 170 336 L 158 336 L 155 336 L 152 333 L 144 312 L 143 301 L 148 266 L 152 245 L 156 237 L 156 229 L 149 223 L 143 223 L 136 227 L 128 248 L 109 293 L 109 312 L 114 317 L 114 324 L 111 327 L 103 332 L 97 336 L 78 339 L 68 344 L 58 344 L 51 341 L 49 331 L 55 317 L 65 298 L 76 274 L 85 257 L 89 250 L 94 243 L 101 233 L 108 224 L 121 201 L 135 185 L 147 169 L 153 157 L 157 150 L 159 143 L 163 131 L 165 126 L 166 113 L 158 89 L 160 80 L 168 72 L 199 54 L 205 51 L 214 51 L 218 57 L 221 68 L 231 89 L 235 101 L 240 107 L 249 122 L 262 142 L 279 168 L 300 195 L 309 210 L 313 216 L 317 221 L 340 255 L 344 265 L 345 273 L 346 292 L 346 302 L 338 322 L 330 330 L 326 332 L 309 339 L 283 348 Z M 172 189 L 191 185 L 194 183 L 196 174 L 194 170 L 189 160 L 186 156 L 180 153 L 176 154 L 162 172 L 159 183 L 168 188 L 172 189 Z"/>
</svg>
