<svg xmlns="http://www.w3.org/2000/svg" viewBox="0 0 4000 4000" width="1500" height="1500">
  <path fill="#dcb" d="M 0 4000 L 0 0 L 4000 0 L 4000 4000 L 0 4000 Z"/>
  <path fill="#911" d="M 2831 3487 L 2764 3454 L 2754 3406 L 2840 3209 L 2840 3050 L 2820 2968 L 2787 2852 L 2499 2458 L 2452 2406 L 2368 2302 L 2331 2249 L 2267 2249 L 2206 2315 L 2175 2392 L 2131 2533 L 2118 2596 L 2105 2965 L 2204 3124 L 2224 3163 L 2224 3212 L 2189 3263 L 1946 3280 L 1876 3299 L 1758 3338 L 1708 3361 L 1588 3364 L 1553 3362 L 1526 3331 L 1444 3129 L 1434 3019 L 1481 2664 L 1524 2459 L 1560 2375 L 1560 2297 L 1499 2238 L 1434 2238 L 1369 2274 L 1286 2488 L 1097 2936 L 1093 3121 L 1140 3173 L 1140 3247 L 1118 3271 L 1037 3328 L 979 3361 L 783 3395 L 681 3442 L 582 3442 L 515 3410 L 492 3318 L 554 3174 L 656 2982 L 768 2749 L 851 2573 L 897 2507 L 944 2431 L 1017 2331 L 1089 2240 L 1218 2011 L 1357 1855 L 1472 1696 L 1533 1573 L 1570 1502 L 1590 1431 L 1630 1313 L 1651 1268 L 1660 1131 L 1586 897 L 1609 809 L 1687 728 L 1990 545 L 2057 512 L 2145 512 L 2184 570 L 2213 688 L 2312 892 L 2358 1018 L 2404 1079 L 2496 1224 L 2620 1420 L 2796 1680 L 3001 1959 L 3095 2102 L 3130 2164 L 3176 2210 L 3401 2550 L 3446 2652 L 3455 2735 L 3466 2922 L 3467 3025 L 3382 3220 L 3307 3305 L 3261 3321 L 3099 3391 L 2831 3487 Z M 1729 1896 L 1913 1851 L 1943 1839 L 1969 1749 L 1948 1700 L 1896 1609 L 1865 1567 L 1807 1532 L 1765 1544 L 1626 1721 L 1594 1837 L 1689 1885 L 1729 1896 Z"/>
</svg>