<svg xmlns="http://www.w3.org/2000/svg" viewBox="0 0 4000 4000" width="1500" height="1500">
  <circle fill="#dcb" cx="2000" cy="2000" r="2000"/>
  <path fill="#333" d="M 2851 3307 L 2784 3274 L 2774 3226 L 2860 3029 L 2860 2870 L 2840 2788 L 2807 2672 L 2519 2278 L 2472 2226 L 2388 2122 L 2351 2069 L 2287 2069 L 2226 2135 L 2195 2212 L 2151 2353 L 2138 2416 L 2125 2785 L 2224 2944 L 2244 2983 L 2244 3032 L 2209 3083 L 1966 3100 L 1896 3119 L 1778 3158 L 1728 3181 L 1608 3184 L 1573 3182 L 1546 3151 L 1464 2949 L 1454 2839 L 1501 2484 L 1544 2279 L 1580 2195 L 1580 2117 L 1519 2058 L 1454 2058 L 1389 2094 L 1306 2308 L 1117 2756 L 1113 2941 L 1160 2993 L 1160 3067 L 1138 3091 L 1057 3148 L 999 3181 L 803 3215 L 701 3262 L 602 3262 L 535 3230 L 512 3138 L 574 2994 L 676 2802 L 788 2569 L 871 2393 L 917 2327 L 964 2251 L 1037 2151 L 1109 2060 L 1238 1831 L 1377 1675 L 1492 1516 L 1553 1393 L 1590 1322 L 1610 1251 L 1650 1133 L 1671 1088 L 1680 951 L 1606 717 L 1629 629 L 1707 548 L 2010 365 L 2077 332 L 2165 332 L 2204 390 L 2233 508 L 2332 712 L 2378 838 L 2424 899 L 2516 1044 L 2640 1240 L 2816 1500 L 3021 1779 L 3115 1922 L 3150 1984 L 3196 2030 L 3421 2370 L 3466 2472 L 3475 2555 L 3486 2742 L 3487 2845 L 3402 3040 L 3327 3125 L 3281 3141 L 3119 3211 L 2851 3307 Z M 1749 1716 L 1933 1671 L 1963 1659 L 1989 1569 L 1968 1520 L 1916 1429 L 1885 1387 L 1827 1352 L 1785 1364 L 1646 1541 L 1614 1657 L 1709 1705 L 1749 1716 Z"/>
</svg>