<svg xmlns="http://www.w3.org/2000/svg" viewBox="0 0 4000 4000" width="1500" height="1500">
  <path fill="#333" d="M0 2000 V 0 h 4000 v 4000 H 0 z"/>
  <path fill="#ddd" d="M 2800 3100 l -21 -14 -5 -21 -5 -21 44 -87 44 -87 0 -70 0 -70 -20 -72 c -10 -39 -26 -85 -34 -102 l -16 -30 -26 -18 c -14 -10 -46 -36 -71 -58 l -45 -39 -69 -101 -68 -101 -48 -46 c -26 -25 -65 -66 -86 -92 l -38 -46 -32 0 -33 0 -31 29 -32 29 -31 68 c -17 38 -38 94 -45 124 l -14 55 -6 163 -7 162 40 53 c 22 28 49 68 61 87 l 21 35 0 21 0 22 -18 22 -18 23 -125 8 -124 7 -71 16 c -39 8 -94 24 -121 35 l -51 20 -43 2 c -24 2 -60 2 -80 1 l -36 -2 -28 -27 c -37 -38 -60 -87 -84 -178 l -21 -77 11 -20 11 -20 19 -146 18 -147 22 -90 22 -90 18 -37 19 -37 0 -35 0 -34 -31 -26 -31 -26 -33 0 -34 0 -33 16 -33 16 -43 88 c -23 48 -42 94 -42 100 0 11 -133 284 -179 369 l -15 26 -2 82 -2 81 24 23 24 22 0 33 0 33 -22 21 c -12 11 -49 34 -83 50 l -60 29 -100 15 -100 15 -53 21 -52 20 -50 0 -51 0 -34 -14 -34 -14 -12 -41 -12 -40 23 -53 c 12 -29 31 -62 41 -74 10 -11 19 -23 19 -27 0 -7 17 -35 85 -142 18 -27 69 -120 115 -205 l 84 -155 48 -58 c 26 -32 48 -62 48 -67 0 -5 33 -45 74 -88 l 74 -80 43 -78 43 -79 46 -45 c 26 -25 90 -86 142 -137 l 95 -91 23 -49 c 13 -26 41 -76 62 -109 l 38 -62 21 -63 c 12 -35 30 -82 41 -104 l 21 -39 4 -61 5 -60 -22 -60 c -12 -33 -29 -79 -37 -103 l -16 -43 12 -39 11 -38 40 -36 40 -36 28 0 28 0 99 -50 99 -50 28 -31 28 -30 35 -14 34 -15 45 0 45 0 20 26 20 25 15 52 15 52 51 85 c 27 47 50 89 50 95 0 5 11 33 24 61 l 23 50 47 53 c 25 28 46 56 46 60 0 5 22 36 48 68 27 32 84 110 127 173 99 145 130 185 180 229 54 49 74 71 115 126 19 26 62 80 95 119 34 39 77 96 96 126 l 36 55 47 40 c 117 100 150 143 230 300 l 46 90 10 73 c 5 40 10 113 11 164 l 1 91 -44 86 -43 86 -39 37 -38 38 -47 14 c -25 8 -100 35 -166 61 -149 57 -239 85 -274 85 l -27 0 -21 -15 z m -1000 -1350 c 42 -9 91 -20 108 -26 l 31 -10 13 -40 14 -40 -22 -43 c -11 -24 -35 -60 -53 -80 l -32 -37 -30 -15 -29 -16 -22 6 -21 5 -71 78 -71 78 -16 49 c -9 27 -17 51 -17 53 0 7 62 34 97 42 21 5 39 9 41 10 2 1 38 -6 80 -14 z"/>
</svg>
